**ABCDEFGHIJKLMNOPQRSTUVWXYZabcdefghijklmnopqrstuvwxyz**************************
**PARASOLID !"#$%&'()*+,-./:;<=>?@[\]^_`{|}~0123456789**************************
**PART1;
MC=AMD64;
MC_MODEL=AMD64 Family 23 Model 8 Stepping 2, AuthenticAMD;
MC_ID=unknown;
OS=Windows_NT;
OS_RELEASE=unknown;
FRU=Parasolid Version 31.1, build 278,  7-15-2019;
APPL=SOLIDWORKS 2020-2019269;
SITE=;
USER=unknown;
FORMAT=text;
GUISE=transmit;
KEY=makeProjectedPlanarWire;
FILE=makeProjectedPlanarWire.x_t;
DATE=Wed Mar 31 14:56:27 2021;
**PART2;
SCH=SCH_3101278_31100;
USFLD_SIZE=0;
**PART3;
**END_OF_HEADER*****************************************************************
T51 : TRANSMIT FILE created by modeller version 310127823 SCH_3101278_31100_1300
6222 0 12 34 CCCCCCI4 mesh1006 0 I8 polyline1008 0 CCCCCCCDI5 owner1040 0 CCCCCC
I13 boundary_mesh1006 0 I17 boundary_polyline1008 0 CCCA16 index_map_offset0 0 1
 dA9 index_map82 0 A17 node_id_index_map82 0 A20 schema_embedding_map82 0 A5 chi
ld12 0 A14 lowest_node_id0 0 1 dA16 mesh_offset_data206 0 Z1 101 0 2 0 0 0 0 0 0
 1e3 1e-8 0 3 0 1 0 3 1 4 5 6 7 0 0 8 9 10 0 0 0 0 0 0 0 70 11 CI9 list_type0 0
 1 uI10 notransmit0 0 1 lCCCDCCDI12 finger_index0 0 1 dI12 finger_block1012 0 CZ
2 0 4 T1 0 0 1 20 1 11 11 13 255 4 98 0 1 0 12 0 0 8 12 51 255 5 3 0 12 0 0 0 -0
 .045 0 0 1 0 .0167116273153159 0 0 1 32 255 6 44 0 13 14 0 0 +0 .03553852608291
725 0 0 .785271219219319 .619151929873277 0 .619151929873278 -.785271219219319 .
02128134446583925 .0167116273153159 29 255 7 90 0 10 15 0 -.00803979892710771 .0
470898829835613 -.01465060137802164 19 8 CCCCCCCA5 owner12 0 Z8 97 0 1 0 0 4 V0
 16 255 9 45 0 ?16 0 13 6 13 13 1 18 255 10 88 0 17 0 18 7 ?1 17 255 17 0 0 0 0
 10 19 20 0 16 +18 18 85 0 21 10 22 15 ?1 17 21 0 23 16 24 18 25 13 0 26 +18 22
 82 0 24 18 27 28 ?1 29 15 87 0 18 28 7 0 .0487149115792396 -.0167116273153159 2
9 28 84 0 22 29 15 .00803979892710771 .0470898829835613 -.01465060137802164 29 2
9 81 0 27 30 28 .00803979892710771 .045 -.01465060137802164 18 27 79 0 31 22 32
 29 ?1 29 30 78 0 32 33 29 .0167076924376399 .045 .0003626305768165085 18 32 76
 0 34 27 35 30 ?1 29 33 75 0 35 36 30 .0167076924376399 .0470898829835613 .00036
263057681651 18 35 73 0 37 32 38 33 ?1 29 36 72 0 38 39 33 .01447269379364156 .0
487149115792396 .00835581365765781 18 38 70 0 40 35 41 36 ?1 29 39 69 0 41 42 36
 .00866789351053233 .0470898829835613 .0142879708012049 18 41 67 0 43 38 44 39 ?
1 29 42 66 0 44 45 39 .00866789351053233 .045 .0142879708012049 18 44 64 0 46 41
 47 42 ?1 29 45 63 0 47 48 42 -.00866789351053212 .045 .01428797080120502 18 47
 61 0 49 44 50 45 ?1 29 48 60 0 50 51 45 -.00866789351053212 .0470898829835612 .
01428797080120502 18 50 58 0 52 47 53 48 ?1 29 51 57 0 53 54 48 -.01447269379364
146 .0487149115792396 .00835581365765801 18 53 55 0 55 50 56 51 ?1 29 54 54 0 56
 57 51 -.0167076924376399 .0470898829835613 .000362630576816746 18 56 52 0 58 53
 59 54 ?1 29 57 51 0 59 60 54 -.0167076924376399 .045 .0003626305768167465 18 59
 49 0 61 56 62 57 ?1 29 60 48 0 62 0 57 -.00803979892710771 .045 -.0146506013780
2164 18 62 46 0 19 59 0 60 ?1 17 19 0 23 61 16 62 17 20 0 63 -15 255 23 7 0 19 1
2 0 17 61 0 23 58 19 59 63 64 0 65 -17 16 0 23 19 21 10 26 9 0 0 +16 20 11 0 ?17
 64 66 67 0 0 1 17 63 0 0 0 0 62 61 64 0 0 +16 64 14 0 ?63 68 20 69 70 71 1 16 6
8 17 0 ?65 72 64 73 0 0 1 31 255 69 16 0 64 67 73 0 +0 .045 0 0 -1 0 0 0 -1 .016
7116273153159 16 70 38 0 ?74 75 76 69 71 64 1 16 71 27 0 ?77 78 79 69 64 70 1 17
 77 0 0 0 0 47 46 71 0 0 +16 78 28 0 ?80 81 71 82 0 0 1 16 79 24 0 ?83 71 84 85
 0 0 1 17 83 0 0 0 0 50 49 79 0 0 +16 84 23 0 ?52 79 72 86 72 72 1 30 255 85 26
 0 79 86 82 0 +-.00866789351053212 .045 .01428797080120502 0 1 0 32 86 22 0 72 7
3 85 0 +0 .03553852608291725 0 .536201300072418 .785271219219319 -.3095759649366
41 -.680064824704708 .619151929873277 .392635609609663 .02128134446583925 .01671
16273153159 30 82 30 0 78 85 87 0 -.00866789351053233 .045 .0142879708012049 0 1
 0 32 87 33 0 81 82 88 0 +0 .03553852608291725 0 -.536201300072422 .785271219219
319 -.3095759649366335 .680064824704713 .619151929873277 .3926356096096535 .0212
8134446583925 .0167116273153159 16 81 31 0 ?40 89 78 87 89 89 1 30 88 37 0 76 87
 14 0 +.0167076924376399 .045 .0003626305768165085 0 1 0 16 76 35 0 ?90 70 89 88
 0 0 1 30 14 41 0 75 88 6 0 -.00803979892710771 .045 -.01465060137802164 0 1 0 1
6 75 39 0 ?91 13 70 14 0 0 1 17 91 0 0 0 0 27 24 75 0 0 +16 13 42 0 ?21 9 75 6 9
 9 1 17 24 0 23 21 31 22 91 75 0 25 -17 31 0 23 24 34 27 74 70 0 91 -17 25 0 0 0
 0 22 21 13 0 0 -17 34 0 23 31 37 32 90 76 0 74 -17 74 0 0 0 0 32 31 70 0 0 +17
 37 0 23 34 40 35 92 89 0 90 +17 90 0 0 0 0 35 34 76 0 0 +17 40 0 23 37 43 38 93
 81 0 92 +17 92 0 0 0 0 38 37 89 0 0 -16 89 34 0 ?37 76 81 87 81 81 1 17 43 0 23
 40 46 41 80 78 0 93 -17 93 0 0 0 0 41 40 81 0 0 -17 46 0 23 43 49 44 77 71 0 80
 -17 80 0 0 0 0 44 43 78 0 0 +17 49 0 23 46 52 47 83 79 0 77 -17 52 0 23 49 55 5
0 94 84 0 83 +17 55 0 23 52 58 53 95 72 0 94 +17 94 0 0 0 0 53 52 84 0 0 -17 58
 0 23 55 61 56 65 68 0 95 -17 95 0 0 0 0 56 55 72 0 0 -16 72 20 0 ?55 84 68 86 8
4 84 1 17 65 0 0 0 0 59 58 68 0 0 +30 73 19 0 68 69 86 0 --.0167076924376399 .04
5 .0003626305768167465 0 1 0 30 67 13 0 20 96 69 0 +-.00803979892710771 .045 -.0
1465060137802164 0 1 0 31 96 10 0 66 0 67 0 +0 .05 0 0 -1 0 0 0 -1 .016711627315
3159 16 66 8 0 ?97 20 0 96 0 0 1 17 97 0 98 97 97 0 99 66 0 0 +15 98 6 0 97 12 2
3 17 99 0 0 0 0 0 97 66 0 0 -14 255 12 1 100 ?0 0 98 4 5 -0 0 0 0 4 81 255 1 100
 101 101 12 0 0 0 0 102 80 255 1 101 103 104 9000 1 1 1 1 1 1 1 1 0 FFFFTFTFFFFF
FF1 82 255 1 102 1898119418 79 255 14 104 SWEntUnchanged17 26 0 0 0 0 18 16 9 0
 0 -74 4 CI16 index_map_offset0 0 1 dCCZ20 11 1 0 0 100 0 0 0 0 0 0 0 0 0 0 0 0
 0 0 0 0 0 0 0 1 0 
